<svg width="57" height="55" viewBox="0 0 57 55" fill="none" xmlns="http://www.w3.org/2000/svg">
<path d="M28.0759 0C12.5726 0 0 12.6217 0 28.1917C0 40.6449 8.04475 51.2098 19.2063 54.9409C20.6103 55.2006 21.1227 54.3301 21.1227 53.5825C21.1227 52.9121 21.0982 51.1396 21.0841 48.788C13.2745 50.4903 11.6249 45.0078 11.6249 45.0078C10.3508 41.7506 8.50806 40.8836 8.50806 40.8836C5.95634 39.1357 8.69759 39.1708 8.69759 39.1708C11.5161 39.3708 12.9973 42.077 12.9973 42.077C15.5033 46.3837 19.5713 45.1412 21.1719 44.4181C21.4246 42.5965 22.1511 41.3539 22.9549 40.6484C16.7213 39.9359 10.1647 37.5176 10.1647 26.7176C10.1647 23.6393 11.2598 21.1227 13.0569 19.1502C12.7656 18.4376 11.8039 15.57 13.3307 11.6916C13.3307 11.6916 15.6894 10.9334 21.0525 14.5802C23.2919 13.9555 25.6927 13.6431 28.0829 13.6326C30.4662 13.6466 32.8704 13.9555 35.1133 14.5837C40.4729 10.9369 42.8281 11.6951 42.8281 11.6951C44.3584 15.577 43.3967 18.4412 43.1089 19.1537C44.9095 21.1262 45.9941 23.6429 45.9941 26.7211C45.9941 37.5492 39.4305 39.9324 33.1758 40.6309C34.1832 41.5014 35.0817 43.2212 35.0817 45.8502C35.0817 49.6198 35.0466 52.6594 35.0466 53.5825C35.0466 54.3372 35.552 55.2146 36.9771 54.9374C48.1211 51.2028 56.1588 40.6414 56.1588 28.1917C56.1588 12.6217 43.5863 0 28.0759 0Z" fill="#5D6AFB"/>
</svg>
