<svg width="91" height="74" viewBox="0 0 91 74" fill="none" xmlns="http://www.w3.org/2000/svg">
<path d="M72.7228 46.2299C72.8815 60.3202 61.5365 71.7981 47.4964 71.8551C33.506 71.9117 22.0584 60.3344 22.0584 46.3435V3.01151C22.0585 2.84729 22.1183 2.68872 22.2268 2.56539C22.3352 2.44206 22.4848 2.36241 22.6477 2.34129L35.2577 0.715192C35.3527 0.703112 35.4493 0.711415 35.5409 0.739547C35.6326 0.76768 35.7172 0.814997 35.7891 0.878353C35.861 0.94171 35.9186 1.01965 35.9581 1.107C35.9976 1.19435 36.018 1.2891 36.018 1.38495V23.879V46.3964C36.018 52.7306 41.1415 57.9397 47.4752 57.8927C53.6852 57.8467 58.7108 52.8231 58.7595 46.6135C58.8087 40.4325 53.8513 35.3035 47.6735 35.154C46.4244 35.1217 45.1785 35.296 43.9862 35.6697V21.4175C45.0868 21.2693 46.1959 21.1934 47.3064 21.1903C61.2582 21.1447 72.5655 32.2799 72.7228 46.2299Z" fill="#5D6AFB"/>
<path d="M43.987 21.4175V35.6706C39.37 37.1173 36.0208 41.4284 36.0208 46.522V23.8799C38.5206 22.6214 41.213 21.7891 43.987 21.4175V21.4175Z" fill="url(#paint0_linear)"/>
<path d="M6.8007 47.1274C8.69344 47.6251 9.96366 48.5086 10.6113 49.7779C11.2515 51.0156 11.6087 52.3799 11.6574 53.7725L12.0314 61.242C12.1316 63.3319 12.493 64.7381 13.1156 65.4606C13.7381 66.1831 14.6971 66.5441 15.9924 66.5435H17.1884V73.2931H13.0024C10.6604 73.2931 8.7422 72.6201 7.24782 71.2741C5.75343 69.9282 4.90642 67.8352 4.70678 64.9951L4.10878 54.9786C4.00972 53.2343 3.69846 52.0506 3.17498 51.4274C2.6515 50.8043 1.5935 50.493 0.000976562 50.4936V43.762C1.59564 43.762 2.65364 43.4503 3.17498 42.8268C3.69631 42.2034 4.00758 41.0201 4.10878 39.277L4.70678 29.2605C4.90672 26.4195 5.75374 24.3262 7.24782 22.9806C8.7419 21.6349 10.6601 20.9622 13.0024 20.9626H17.1884V27.7135H15.9924C14.6974 27.7135 13.7384 28.0745 13.1156 28.7964C12.4927 29.5182 12.1313 30.9245 12.0314 33.015L11.6574 40.4822C11.6086 41.8747 11.2514 43.2391 10.6113 44.4768C9.96366 45.7455 8.69344 46.629 6.8007 47.1274Z" fill="#5D6AFB"/>
<path d="M83.5561 46.2222C81.6796 45.7192 80.4205 44.8275 79.7788 43.547C79.1443 42.2978 78.7901 40.9206 78.7419 39.5151L78.3712 31.9783C78.2718 29.8692 77.9136 28.4498 77.2965 27.7203C76.6794 26.9907 75.7288 26.6264 74.4448 26.6273H73.2593V19.8148H77.4086C79.7302 19.8148 81.6316 20.4941 83.1129 21.8526C84.5942 23.2111 85.4338 25.3236 85.6317 28.1901L86.2245 38.3001C86.3223 40.0606 86.6309 41.2554 87.1501 41.8844C87.6693 42.5133 88.718 42.8275 90.2963 42.8269V49.6176C88.7156 49.6176 87.6669 49.9321 87.1501 50.561C86.6333 51.19 86.3248 52.3844 86.2245 54.1444L85.6317 64.2543C85.4332 67.1218 84.5936 69.2346 83.1129 70.5928C81.6322 71.951 79.7308 72.6299 77.4086 72.6296H73.2593V65.8171H74.4448C75.7285 65.8171 76.6791 65.4528 77.2965 64.7242C77.9139 63.9955 78.2721 62.5762 78.3712 60.4662L78.7419 52.9294C78.7902 51.5238 79.1444 50.1467 79.7788 48.8975C80.4208 47.617 81.6799 46.7252 83.5561 46.2222Z" fill="#5D6AFB"/>
<defs>
<linearGradient id="paint0_linear" x1="27.7973" y1="34.1121" x2="43.1852" y2="33.9332" gradientUnits="userSpaceOnUse">
<stop stop-color="#1D1D1B"/>
<stop offset="1" stop-color="#5D6AFB"/>
</linearGradient>
</defs>
</svg>
